<svg enable-background="new 0 0 200 200" version="1.1" viewBox="0 0 200 200" xml:space="preserve" xmlns="http://www.w3.org/2000/svg"><path d="m149.4 163.4-1.8-0.2c-0.1 0-0.2-0.1-0.3-0.2l-0.6-1.5c-0.1-0.3-0.5-0.3-0.6 0l-0.6 1.5c0 0.1-0.1 0.2-0.3 0.2l-1.8 0.2c-0.3 0-0.4 0.4-0.2 0.5l1.3 1.2c0.1 0.1 0.1 0.2 0.1 0.3l-0.4 1.6c-0.1 0.3 0.2 0.5 0.5 0.3l1.5-0.9c0.1-0.1 0.2-0.1 0.3 0l1.5 0.9c0.2 0.1 0.5-0.1 0.5-0.3l-0.4-1.6c0-0.1 0-0.2 0.1-0.3l1.3-1.2c0.3-0.1 0.2-0.5-0.1-0.5z"/><path d="m124.7 55.9-1.7-0.2c-0.1 0-0.2-0.1-0.3-0.2l-0.6-1.5c-0.1-0.2-0.2-0.2-0.4-0.2-0.1 0-0.1 0.1-0.2 0.2l-0.6 1.5c0 0.1-0.1 0.2-0.3 0.2l-1.7 0.2c-0.3 0-0.4 0.3-0.2 0.5l1.3 1.1c0.1 0.1 0.1 0.2 0.1 0.3l-0.4 1.6c-0.1 0.3 0.2 0.5 0.4 0.3l1.4-0.8c0.1-0.1 0.2-0.1 0.3 0l1.4 0.8c0.2 0.1 0.5-0.1 0.4-0.3l-0.4-1.6c0-0.1 0-0.2 0.1-0.3l1.3-1.1c0.5-0.2 0.4-0.5 0.1-0.5z"/><path d="m41.5 99.1-1.7-0.2c-0.1 0-0.2-0.1-0.3-0.2l-0.6-1.5c-0.1-0.2-0.2-0.2-0.4-0.2-0.1 0-0.1 0.1-0.2 0.2l-0.6 1.5c0 0.1-0.1 0.2-0.3 0.2l-1.7 0.2c-0.3 0-0.4 0.3-0.2 0.5l1.3 1.1c0.1 0.1 0.1 0.2 0.1 0.3l-0.4 1.6c-0.1 0.3 0.2 0.5 0.4 0.3l1.4-0.8c0.1-0.1 0.2-0.1 0.3 0l1.4 0.8c0.2 0.1 0.5-0.1 0.4-0.3l-0.4-1.6c0-0.1 0-0.2 0.1-0.3l1.3-1.1c0.5-0.2 0.4-0.5 0.1-0.5z"/><path d="m88.9 45.4-1.7-0.2c-0.1 0-0.2-0.1-0.3-0.2l-0.6-1.5c-0.1-0.2-0.2-0.2-0.4-0.2-0.1 0-0.1 0.1-0.2 0.2l-0.6 1.5c0 0.1-0.1 0.2-0.3 0.2l-1.7 0.2c-0.3 0-0.4 0.3-0.2 0.5l1.3 1.1c0.1 0.1 0.1 0.2 0.1 0.3l-0.4 1.6c-0.1 0.3 0.2 0.5 0.4 0.3l1.4-0.8c0.1-0.1 0.2-0.1 0.3 0l1.4 0.8c0.2 0.1 0.5-0.1 0.4-0.3l-0.4-1.6c0-0.1 0-0.2 0.1-0.3l1.3-1.1c0.5-0.2 0.4-0.5 0.1-0.5z"/><path d="m193.8 122.4-1.7-0.2c-0.1 0-0.2-0.1-0.3-0.2l-0.6-1.5c-0.1-0.2-0.2-0.2-0.4-0.2-0.1 0-0.1 0.1-0.2 0.2l-0.6 1.5c0 0.1-0.1 0.2-0.3 0.2l-1.7 0.2c-0.3 0-0.4 0.3-0.2 0.5l1.3 1.1c0.1 0.1 0.1 0.2 0.1 0.3l-0.4 1.6c-0.1 0.3 0.2 0.5 0.4 0.3l1.4-0.8c0.1-0.1 0.2-0.1 0.3 0l1.4 0.8c0.2 0.1 0.5-0.1 0.4-0.3l-0.4-1.6c0-0.1 0-0.2 0.1-0.3l1.3-1.1c0.6-0.2 0.4-0.5 0.1-0.5z"/><path d="m27.3 148.1-1.7-0.2c-0.1 0-0.2-0.1-0.3-0.2l-0.6-1.5c-0.1-0.2-0.2-0.2-0.4-0.2-0.1 0-0.1 0.1-0.2 0.2l-0.6 1.5c0 0.1-0.1 0.2-0.3 0.2l-1.7 0.2c-0.3 0-0.4 0.3-0.2 0.5l1.3 1.1c0.1 0.1 0.1 0.2 0.1 0.3l-0.4 1.6c-0.1 0.3 0.2 0.5 0.4 0.3l1.4-0.8c0.1-0.1 0.2-0.1 0.3 0l1.4 0.8c0.2 0.1 0.5-0.1 0.4-0.3l-0.4-1.6c0-0.1 0-0.2 0.1-0.3l1.3-1.1c0.5-0.2 0.4-0.5 0.1-0.5z"/><path d="m18.3 21.2-1.6-0.2c-0.1 0-0.2-0.1-0.3-0.2l-0.6-1.5c-0.1-0.2-0.2-0.2-0.4-0.2-0.1 0-0.1 0.1-0.2 0.2l-0.6 1.5c0 0.1-0.1 0.2-0.3 0.2l-1.7 0.2c-0.3 0-0.4 0.3-0.2 0.5l1.3 1.1c0.1 0.1 0.1 0.2 0.1 0.3l-0.4 1.6c-0.1 0.3 0.2 0.5 0.4 0.3l1.4-0.8c0.1-0.1 0.2-0.1 0.3 0l1.4 0.8c0.2 0.1 0.5-0.1 0.4-0.3l-0.4-1.6c0-0.1 0-0.2 0.1-0.3l1.3-1.1c0.5-0.2 0.4-0.5 0-0.5z"/><path d="m180.5 15.2-1.7-0.2c-0.1 0-0.2-0.1-0.3-0.2l-0.6-1.5c-0.1-0.2-0.2-0.2-0.4-0.2-0.1 0-0.1 0.1-0.2 0.2l-0.6 1.5c0 0.1-0.1 0.2-0.3 0.2l-1.7 0.2c-0.3 0-0.4 0.3-0.2 0.5l1.3 1.1c0.1 0.1 0.1 0.2 0.1 0.3l-0.4 1.6c-0.1 0.3 0.2 0.5 0.4 0.3l1.4-0.8c0.1-0.1 0.2-0.1 0.3 0l1.4 0.8c0.2 0.1 0.5-0.1 0.4-0.3l-0.4-1.6c0-0.1 0-0.2 0.1-0.3l1.3-1.1c0.5-0.2 0.4-0.5 0.1-0.5z"/><path d="m93.2 111.6-1.7-0.2c-0.1 0-0.2-0.1-0.3-0.2l-0.6-1.5c-0.1-0.2-0.2-0.2-0.4-0.2-0.1 0-0.1 0.1-0.2 0.2l-0.6 1.5c0 0.1-0.1 0.2-0.3 0.2l-1.7 0.2c-0.3 0-0.4 0.3-0.2 0.5l1.3 1.1c0.1 0.1 0.1 0.2 0.1 0.3l-0.4 1.6c-0.1 0.3 0.2 0.5 0.4 0.3l1.4-0.8c0.1-0.1 0.2-0.1 0.3 0l1.4 0.8c0.2 0.1 0.5-0.1 0.4-0.3l-0.4-1.6c0-0.1 0-0.2 0.1-0.3l1.3-1.1c0.5-0.2 0.4-0.5 0.1-0.5z"/><path d="m140.9 97.3-1.7-0.2c-0.1 0-0.2-0.1-0.3-0.2l-0.6-1.5c-0.1-0.2-0.2-0.2-0.4-0.2-0.1 0-0.1 0.1-0.2 0.2l-0.6 1.5c0 0.1-0.1 0.2-0.3 0.2l-1.7 0.2c-0.3 0-0.4 0.3-0.2 0.5l1.3 1.1c0.1 0.1 0.1 0.2 0.1 0.3l-0.4 1.6c-0.1 0.3 0.2 0.5 0.4 0.3l1.4-0.8c0.1-0.1 0.2-0.1 0.3 0l1.4 0.8c0.2 0.1 0.5-0.1 0.4-0.3l-0.4-1.6c0-0.1 0-0.2 0.1-0.3l1.3-1.1c0.5-0.2 0.5-0.5 0.1-0.5z"/><path d="m62.8 176.1-1.7-0.2c-0.1 0-0.2-0.1-0.3-0.2l-0.6-1.5c-0.1-0.2-0.2-0.2-0.4-0.2-0.1 0-0.1 0.1-0.2 0.2l-0.6 1.5c0 0.1-0.1 0.2-0.3 0.2l-1.7 0.2c-0.3 0-0.4 0.3-0.2 0.5l1.3 1.1c0.1 0.1 0.1 0.2 0.1 0.3l-0.4 1.6c-0.1 0.3 0.2 0.5 0.4 0.3l1.4-0.8c0.1-0.1 0.2-0.1 0.3 0l1.4 0.8c0.2 0.1 0.5-0.1 0.4-0.3l-0.4-1.6c0-0.1 0-0.2 0.1-0.3l1.3-1.1c0.5-0.2 0.4-0.5 0.1-0.5z"/></svg>
